<svg xmlns="http://www.w3.org/2000/svg" width="300" height="61" viewBox="0 115 300 61" enable-background="new 0 115 300 61"><g fill="#fff"><path d="M84 119.1h2c.8 0 1 .2 1 .8 0 .4-.3.8-1.4.8H84v-1.6zm-1.9 2.9h3.7c2.1 0 3.3-.5 3.3-1.9 0-1-.9-1.5-2-1.6 1.1-.2 1.7-.7 1.7-1.5 0-1.2-1.1-1.8-2.7-1.8h-4v6.8zm1.9-5.6h1.7c.7 0 1.1.1 1.1.7 0 .5-.4.7-1.1.7H84v-1.4zM102.2 119.7l1-2.8 1 2.8h-2zm-3 2.3h2.2l.4-1.1h3l.4 1.1h2.2l-3.1-6.8h-2.1l-3 6.8zM117.8 115.2h2v5.3h3.2v1.4h-5.2v-6.7zM132 115.2h6.3v1.3h-2.1v5.5h-2v-5.5H132v-1.3zM148.8 115.2h2v6.8h-2v-6.8zM162 115.2h3l1.4 5.1 1.5-5.1h2.9v6.8H169v-5.2l-1.6 5.2h-1.8l-1.7-5.2v5.2H162v-6.8zM187.9 118.6c0 1.1-.6 2.2-2.1 2.2-1.6 0-2.1-1.2-2.1-2.2 0-1.5.9-2.2 2.1-2.2 1.5 0 2.1 1.1 2.1 2.2zm2 0c0-1.9-1.5-3.6-4.1-3.6s-4.1 1.7-4.1 3.6c0 1.9 1.5 3.6 4.1 3.6 2.6 0 4.1-1.7 4.1-3.6zM202.8 116.4h1.9c.7 0 1.1.3 1.1.9s-.4.9-1.1.9h-1.9v-1.8zm-2 5.6h2v-2.4h1.3l1.6 2.4h2.3l-1.9-2.7c1-.2 1.7-1 1.7-1.8 0-1.5-1.1-2.2-2.9-2.2h-4.1v6.7zM218.6 122v-6.8h6v1.3h-4v1.2h3.7v1.3h-3.7v1.6h4.3v1.3h-6.3z"/></g><g fill="#fff"><path d="M60.1 142.9l9.2 10.2h16.1l-5.7-3-8.7-8.3c4.5-1 7.8-2.8 7.8-5.4 0-4.8-10.3-6.5-18.9-6.5H49.6c-2.1 0-4.2.2-6.1.3l-8.8.8 5.1 5 4.1-2.6c.5-.3 1.3-.5 2.2-.6v17.3l-4.3 3H62l-4.2-3v-7.2h2.3zm-2.2-10.1h1.9c3.5 0 6.3 1.8 6.3 3.7s-2.8 3.6-6.3 3.6h-1.9v-7.3zM93.3 144.1l4.6-7 4.6 7h-9.2zm11.1 2.9l2 3.1-4.2 3H124l-4.3-3-14-20.2h-8.5l-13.7 20.2-5.8 3h15.8l-4.2-3 2-3.1h13.1zM117.7 132.9l-4.3-3h18.4l-2.7 3 7.1 13 7.5-13-2.7-3h14.3l-5.7 3-15.5 25.8-16.4-25.8zM185.6 153.1h-33.1l4.3-3v-17.2l-5.7-3h34.6v6.5l-7-3.7h-10.2v6.5h6.8l5.6-3v8.9l-5.6-3h-6.8v8.1h10.2l7-3.7v6.6zM201.4 150.1l4.2 3h-13.2l2.8-3v-17.2l-2.8-3h11.9l16.5 12.1v-9.1l-4.2-3h14.5l-4.2 3v23.5l-25.5-18.9v12.6zM265.3 145.7c0 4.6-5.1 8-16.3 8-1.9 0-3.9-.1-5.8-.3l-9.1-.8 5.1-5.3 4.9 3.2c1.1.4 2.5.8 4.1.8 3.2 0 6.4-1.2 6.4-3.4 0-1.2-1-1.5-2.1-1.9l-10.7-3.5c-4-1.2-7-3.6-7-6.2 0-3.2 3.9-6.9 14.6-6.9 2.1 0 4.2.2 6.1.3l8.8.8-5.1 5-4.7-3c-.8-.4-1.8-.7-3.4-.7-2.3 0-5.3.6-5.3 2.6 0 .7.9 1.7 1.9 2l12.1 3.9c2.3.8 5.5 2.3 5.5 5.4z"/></g></svg>