<svg xmlns="http://www.w3.org/2000/svg" width="300" height="101" viewBox="0 101 300 101" enable-background="new 0 101 300 101"><path fill="#fff" d="M69.3 113.1h4.2V101H52.1c-3.1 0-5.7 2.6-5.7 5.7v21.4h11.3v-3.3c0-6.5 5.2-11.7 11.6-11.7zM69.4 119.7c-2.9.2-5.1 2.7-5.2 5.6v2.8h9.2v6.6h-9.2v12.1h21.4c3.1 0 5.7-2.6 5.7-5.7v-21.4H69.4zM57.6 134.7H37.1v21.4c0 3.1 2.6 5.7 5.7 5.7h21.4v-15h-6.6v-12.1z"/><g fill="#fff"><path d="M262.6 161.8h-7.8c-.2 0-.2-.1-.2-.2V150c0-.1.1-.2.2-.2l2.2-.3c.2 0 .2.1.2.2v9.8h5.3c.2 0 .3.1.3.2v1.8c0 .2-.1.3-.2.3zM167.8 161c0 .1-.1.2-.3.3-.6.2-1.8.6-3.8.6-4.2 0-5.7-1.8-5.7-6.2s1.5-6.2 5.7-6.2c2 0 3.3.4 3.8.6.2.1.3.2.3.3v.1l-.2 1.2c0 .1-.1.2-.2.2h-.2c-.5-.1-1.8-.4-3-.4-2.8 0-3.4 1.2-3.4 4.2s.6 4.2 3.4 4.2c1.2 0 2.5-.3 3-.4h.2c.2 0 .2.1.2.2l.2 1.3c0-.1 0 0 0 0zM203.3 153.9c0 1.1-.2 2.1-.9 2.8-.8.8-2 1-3.4 1h-3v3.8c0 .2-.1.2-.2.2h-2.2c-.2 0-.2-.1-.2-.2v-11.6c0-.2.1-.2.3-.2h5.8c1.3 0 2.3.2 3 .9.6.6.9 1.5.9 2.8-.1 0-.1.5-.1.5zm-3.2-1.9c-.4-.4-1.1-.4-2-.4H196v4.4l2-.1c1 0 1.6-.1 2-.5.3-.3.4-.8.4-1.5v-.5c.1-.7-.1-1.2-.3-1.4zM212.9 161.8h-2.2c-.2 0-.2-.1-.2-.2V150c0-.1.1-.2.2-.2l2.2-.3c.2 0 .2.1.2.2v11.8c.1.2 0 .3-.2.3zM230.4 151.9h-3.7v9.6c0 .2-.1.2-.2.2h-2.2c-.2 0-.2-.1-.2-.2v-9.6h-3.7c-.2 0-.2-.1-.2-.2V150c0-.1.1-.2.2-.2h10.1c.2 0 .2.1.2.2v1.7c0 .1-.2.2-.3.2zM186.3 161.5l-3.8-11.6c-.1-.1-.2-.2-.3-.2h-4.1c-.1 0-.2.1-.3.2l-3.8 11.6v.1c0 .1.1.2.2.2h2.2c.1 0 .2-.1.3-.2l1.1-3.7h4.5l1.1 3.6c.1.2.2.2.3.2h2.3c.2.1.3 0 .3-.2 0 .1 0 0 0 0zm-6.5-9.9h.7l1.3 4.4h-3.4l1.4-4.4zM247.6 161.5l-3.8-11.6c-.1-.1-.2-.2-.3-.2h-4.1c-.1 0-.2.1-.3.2l-3.8 11.6v.1c0 .1.1.2.2.2h2.2c.1 0 .2-.1.3-.2l1.1-3.7h4.5l1.1 3.6c.1.2.2.2.3.2h2.3c.2.1.3 0 .3-.2 0 .1 0 0 0 0zm-6.5-9.9h.7l1.3 4.4h-3.4l1.4-4.4z"/></g><path fill="#fff" d="M118.8 123.2h-9.6v6.6h8c.3 0 .4.2.4.4l-.6 2.6c-.1.3-.3.5-.6.5h-7.3v8.2c0 .3-.2.5-.5.5h-3.3c-.3 0-.5-.2-.5-.5v-21.3c0-.3.2-.5.5-.5h14.2c.3 0 .4.2.4.4l-.6 2.6c0 .3-.2.5-.5.5zM128 142.3c-6.7 0-7.5-3.7-7.5-8.3 0-4.6.8-8.3 7.5-8.3s7.5 3.7 7.5 8.3c0 4.7-.8 8.3-7.5 8.3zm0-13.8c-3.2 0-3.3 1.9-3.3 5.5s.1 5.5 3.3 5.5 3.4-1.9 3.4-5.5-.2-5.5-3.4-5.5zM226.5 141.9h-3.1c-.3 0-.5-.2-.5-.4v-14.7c0-.3.2-.4.5-.4h3.1c.3 0 .4.2.4.4v14.7c.1.3-.1.4-.4.4zM237.9 142.3c-6.7 0-7.5-3.7-7.5-8.3 0-4.6.8-8.3 7.5-8.3s7.5 3.7 7.5 8.3c0 4.7-.8 8.3-7.5 8.3zm0-13.8c-3.2 0-3.3 1.9-3.3 5.5s.1 5.5 3.3 5.5 3.4-1.9 3.4-5.5c-.1-3.6-.2-5.5-3.4-5.5zM165.3 125.7c-1.9 0-4.5.4-6 .8l-2.2.6v14.4c0 .3.2.4.5.4h3.1c.3 0 .4-.2.4-.4v-13h3.8c1.6 0 2.3.6 2.3 2.3v10.6c0 .3.2.4.5.4h3.1c.3 0 .4-.2.4-.4v-11.2c0-3.5-2.1-4.5-5.9-4.5zM257 125.7c-1.9 0-4.5.4-6 .8l-2.2.6v14.4c0 .3.2.4.5.4h3.1c.3 0 .4-.2.4-.4v-13h3.8c1.6 0 2.2.6 2.2 2.3v10.6c0 .3.2.4.5.4h3.1c.3 0 .4-.2.4-.4v-11.2c0-3.5-2-4.5-5.8-4.5zM153 126.7c0-.3-.2-.4-.5-.4h-3.1c-.3 0-.4.2-.4.4v13h-3.8c-1.6 0-2.2-.6-2.2-2.3v-10.6c0-.3-.2-.4-.5-.4h-3.2c-.3 0-.4.2-.4.4V138c0 3.6 2.1 4.6 5.8 4.6 1.9 0 4.5-.4 6-.8l2.2-.6.1-14.5zM219.3 139.3c-.1-.2-.2-.3-.3-.3h-.1c-.5.1-1.4.3-2.3.3-1.6 0-2.1-.5-2.1-1.9V129h3.6c.3 0 .5-.2.6-.4l.5-2.1c.1-.3-.1-.4-.3-.4h-4.4v-4.8c0-.3-.2-.5-.4-.5h-.2l-3.5.6v16.1c0 3.4 1.7 4.7 5.2 4.7 1.9 0 3.2-.4 3.8-.6.2-.1.4-.2.4-.4v-.2l-.5-1.7zM188.7 119.3h-.2l-2.9.5c-.4.1-.5.3-.5.6v5.8c-.5-.2-1.8-.5-3.9-.5-5.3 0-6.7 3-6.7 8.4 0 6.2 1.9 8.2 7.8 8.2 2 0 3.7-.3 5-.7l1.8-.5v-21.4c0-.2-.1-.4-.4-.4zm-3.6 20.2h-2.8c-2.5 0-3.7-.5-3.7-5.6 0-4.8 1-5.4 3.6-5.4 1.4 0 2.9.3 2.9.3v10.7zm15.7-13.8c-1.9 0-4.5.4-6 .8v1.5c0 .3.2.4.5.4H200.4c1.6 0 2.2.6 2.2 2.3v.8l-5.4.9c-2.4.4-4.8.8-4.8 4.7 0 4.8 4 5.1 7.2 5.1 1.7 0 3.1-.2 4.2-.4.3-.1.5-.1.7-.2l2.1-.6v-10.8c.1-3.5-2-4.5-5.8-4.5zm1.9 14h-2.8c-1.4 0-3.3-.2-3.3-2.5 0-2 1.2-2.1 2.4-2.3l3.8-.6-.1 5.4zM223.8 120c-.4 0-.8.4-.8.8v3.2h3.2c.5 0 .8-.4.8-.8V120h-3.2z"/></svg>