<svg xmlns="http://www.w3.org/2000/svg" width="300" height="60" viewBox="0 120 300 60" enable-background="new 0 120 300 60"><g fill="#fff"><path d="M51.4 151.9h-7.8V120h20.6v7.4H51.4v5.7h12.9v7.2H51.4v11.6zM66.4 141.7V120h7.8v21.6c0 4.8 9 4.7 9 0V120H91v21.6c0 7.2-6.2 10.8-12.3 10.7-6.2 0-12.3-3.5-12.3-10.6zM93 151.9V120h6l11 15.9V120h7.7v31.9h-6.1l-10.9-15.5v15.5H93zM119.8 151.9V120h6l11 15.9V120h7.7v31.9h-6.1l-10.9-15.5v15.5h-7.7zM165.2 139v12.9h-7.8V139l-11.9-19h9l3.2 5.1 3.6 6.5 3.8-6.9 2.9-4.7h9.1l-11.9 19zM188.3 129.2h5.8v4.1h-17v-6.6c0-6.8 8.3-7.8 10.8-2.5l6.2-4.2v5l-5.8 3.6v.6zm-3.7 0v-2.4c0-2.5-3.5-2.5-3.5 0v2.4h3.5zM208.1 120c10.5 0 15.8 8 15.8 16s-5.3 15.9-15.8 15.9h-12V120h12zm0 24.5c5.4 0 8.1-4.3 8.1-8.5s-2.7-8.6-8.1-8.6h-4.3v17.1h4.3zM225.4 151.9V120h7.8v31.9h-7.8zM243.1 144.4h13.2v7.5h-21V120h21v7.5h-13.2v4.7h13.2v7.6h-13.2v4.6zM185.6 134.4c-4.8 0-8.8 3.9-8.8 8.8s3.9 8.8 8.8 8.8 8.8-3.9 8.8-8.8c-.1-4.9-4-8.8-8.8-8.8zm0 13.6c-2.7 0-4.8-2.2-4.8-4.8s2.2-4.8 4.8-4.8 4.8 2.2 4.8 4.8c0 2.6-2.2 4.8-4.8 4.8z"/></g></svg>