<svg xmlns="http://www.w3.org/2000/svg" width="510" height="52" viewBox="0 0 510 52"><title>Untitled</title><desc>Created with Sketch.</desc><g fill="#fff"><path d="M481.6 0c15.6 0 28.2 4.6 28.2 25.9 0 21.3-12.6 25.9-28.2 25.9-15.5 0-28.2-4.5-28.2-25.9S466.1 0 481.6 0m0 7c-3.6 0-6.6.2-9.2.8-2.5.6-4.4 1.4-6 2.5-1.6 1.2-2.8 2.9-3.7 5-1.1 2.7-1.7 6.3-1.7 10.6s.6 7.9 1.7 10.6c.9 2.1 2.1 3.8 3.7 5 1.6 1.1 3.5 2 6 2.5 2.6.6 5.6.8 9.2.8 3.7 0 6.7-.2 9.2-.8 2.5-.6 4.4-1.4 6-2.6 1.6-1.2 2.8-2.8 3.7-5 1.2-2.7 1.8-6.2 1.8-10.5s-.6-7.8-1.8-10.5c-.9-2.2-2.1-3.8-3.7-5-1.6-1.2-3.5-2-6-2.6-2.5-.6-5.5-.8-9.2-.8M124.9 22.3c-7.2 0-11.3-.1-14.4-1.6-1.3-.5-2.6-1.5-3.1-2.3-.6-.9-.9-2.1-.9-3.6 0-1.6.3-2.8.9-3.6.5-.8 1.4-1.5 2.7-2.1 3.1-1.4 7.6-2.1 14.8-2.1 7.2 0 10.4.7 13.5 2.1 1.3.6 2.2 1.3 2.8 2.1.5.9.8 2 .8 3.6h7.6C149.6 2.6 139.2 0 124.9 0 110.6 0 99 2.6 99 14.8c0 12.2 8 14.7 25.9 14.7 7.2 0 11.3.1 14.5 1.6 1.2.6 2.5 1.6 3 2.4.6.9.9 2.1.9 3.6s-.3 2.7-.9 3.5c-.5.9-1.4 1.5-2.7 2.1-3.2 1.5-7.6 2.2-14.8 2.2-7.2 0-11.8-.7-14.9-2.2-1.3-.5-2.2-1.2-2.7-2-.6-.9-.9-2.1-.9-3.6H99c0 12.2 11.6 14.8 25.9 14.8 14.3 0 25.9-2.7 25.9-14.8 0-12.2-6.9-14.8-25.9-14.8"/><path d="M316.3 40c-1.9-4.2-3.7-7.2-6.5-8.8 6.5-2.2 10.8-6.5 10.8-14.7C320.6 2.9 309.2 0 295.1 0c-14 0-25.4 2.8-25.4 16.5v34.4h7.3v-18H297.2c5.2.4 8.7 2.6 11.4 7.9 2.5 4.9 2.9 8.4 4.9 10.1h8.7c-3.1-3.1-4.3-7.4-5.9-10.9zM277 16.1c.1-1.8.4-3.3 1-4.4.6-1 1.5-1.8 2.7-2.4 3-1.6 7.5-2.3 14.4-2.3 3.5 0 6.4.1 8.8.5 2.5.4 4.5 1 6 1.8 1.3.7 2.1 1.4 2.7 2.4.7 1.2 1 2.8 1 4.8s-.3 3.6-1 4.7c-.6 1-1.4 1.8-2.7 2.4-1.5.8-3.5 1.4-6 1.8-2.4.4-5.3.6-8.8.6H277v-9.9zM193.1 0c-13.9 0-25.2 2.8-25.5 16v34.9h7.4v-18h18.1c14.1 0 25.5-2.9 25.5-16.4C218.6 2.9 207.2 0 193.1 0m17.5 21.2c-.6 1-1.5 1.8-2.7 2.4-1.5.8-3.5 1.4-6 1.8-2.4.4-5.3.6-8.8.6H175v-9.7c0-1.9.3-3.5 1-4.6.6-1 1.4-1.8 2.7-2.4 3-1.6 7.4-2.3 14.4-2.3 3.5 0 6.4.1 8.8.5 2.5.4 4.5 1 6 1.8 1.2.7 2.1 1.4 2.7 2.4.7 1.2 1 2.8 1 4.8s-.3 3.6-1 4.7"/><path d="M239.2.9h7.9v50h-7.9zM0 .9h7.9v50H0zM74.5.9v40.5S46.3 8.1 43.6 5c-2.7-3.2-4-4.1-9-4.1h-3.4v50h8V10.2l34.3 40.7h8.9V.9h-7.9"/><path d="M382.1 50.8h7.6s-17.5-42.2-18-43.5c-.6-1.3-3.2-7.3-9.8-7.3-6.6 0-8.7 5.1-9.2 6.3-.5 1.2-18.4 44.5-18.4 44.5h7.5s2.9-7.1 6.3-15.5h27.7c3.4 8.4 6.3 15.5 6.3 15.5zm-31.5-21.7c4.1-10.1 8.2-20.1 8.5-20.8.5-1.3 1.6-1.9 2.8-1.9 1.3 0 2.3.7 2.8 1.8.2.6 4.3 10.7 8.5 20.9h-22.6zM442.4.9h-50.3v6.5h21.4v43.5h7.5V7.4h21.4V.9z"/></g></svg>