<?xml version="1.0" encoding="UTF-8"?>
<svg width="160px" height="70px" viewBox="0 0 160 70" version="1.1" xmlns="http://www.w3.org/2000/svg" xmlns:xlink="http://www.w3.org/1999/xlink">
    <!-- Generator: Sketch 49.3 (51167) - http://www.bohemiancoding.com/sketch -->
    <title>bonobos-svg-logobar</title>
    <desc>Created with Sketch.</desc>
    <defs>
        <polygon id="path-1" points="0.141429847 0.170898145 16.1526115 0.170898145 16.1526115 16.2077295 0.141429847 16.2077295"></polygon>
        <polygon id="path-3" points="0.0425977504 0.170845411 16.0790201 0.170845411 16.0790201 16.2061592 0.0425977504 16.2061592"></polygon>
        <polygon id="path-5" points="0.254942415 0.022764392 13.3514493 0.022764392 13.3514493 15.8929105 0.254942415 15.8929105"></polygon>
    </defs>
    <g id="bonobos-svg-logobar" stroke="none" stroke-width="1" fill="none" fill-rule="evenodd">
        <g id="Page-1" transform="translate(25.000000, 27.000000)">
            <path d="M3.15614976,12.9944541 C4.74503865,12.9944541 6.25474879,13.0568937 7.75569082,12.9702754 C8.6218744,12.9205894 9.08180193,12.2847681 9.08206763,11.4050338 C9.08233333,10.578971 8.68643961,9.89718357 7.85745411,9.84430918 C6.30523188,9.7452029 4.74211594,9.81587923 3.15614976,9.81587923 L3.15614976,12.9944541 Z M3.19281643,3.59742512 L3.19281643,7.12699034 C4.56994203,7.12699034 5.88383092,7.16737681 7.194,7.11423671 C8.22332367,7.07225604 8.77677778,6.41942995 8.786343,5.4033913 C8.79670531,4.34244928 8.23528019,3.65587923 7.18018357,3.61071014 C5.8716087,3.55491304 4.55878261,3.59742512 3.19281643,3.59742512 Z M0.00015942029,15.790686 L0.00015942029,0.843173913 C2.89762319,0.843173913 5.7624058,0.748584541 8.61656039,0.881966184 C10.124942,0.952376812 11.3203285,1.80447826 11.8341932,3.34899517 C12.4118261,5.08614493 12.00743,6.82435749 10.6648454,8.26870531 C12.1657874,9.12000966 12.6716812,10.516 12.5382995,12.1152512 C12.3504493,14.3665314 11.2767536,15.6060242 9.00076329,15.7460483 C6.03209179,15.9288502 3.04375845,15.790686 0.00015942029,15.790686 Z" id="Fill-1" fill="#00112C"></path>
            <path d="M68.5760459,12.9921159 C70.1694517,12.9921159 71.6610942,13.0609324 73.1429058,12.9671401 C74.0686063,12.908686 74.4934614,12.206971 74.4575918,11.297744 C74.422785,10.4103043 73.9123744,9.8316087 73.0445966,9.79069082 C71.5662391,9.72107729 70.0820362,9.77156039 68.5760459,9.77156039 L68.5760459,12.9921159 Z M68.6103213,3.58738164 L68.6103213,7.1368744 C69.9303213,7.1368744 71.1873502,7.17061836 72.4417222,7.12730918 C73.6259493,7.0861256 74.2070362,6.43143961 74.1823261,5.28680193 C74.1597415,4.23994203 73.5223261,3.6200628 72.3673261,3.59375845 C71.1403213,3.5658599 69.9125193,3.58738164 68.6103213,3.58738164 Z M65.4197899,15.7949903 L65.4197899,0.835521739 C68.2922778,0.835521739 71.1288961,0.744120773 73.9559493,0.872454106 C75.4635338,0.941004831 76.7046208,1.75484541 77.1887271,3.31185024 C77.7044517,4.96982126 77.5779783,6.55100483 76.3552246,7.91378261 C76.2787029,7.99933816 76.2027126,8.08569082 76.1307077,8.17496618 C76.1142343,8.19515942 76.1155628,8.22943478 76.0996208,8.2934686 C77.1895242,8.9529372 77.7833647,9.92566667 77.8883164,11.222285 C78.1178816,14.0602319 76.6490894,15.7878164 73.796529,15.8518502 C71.130756,15.9113671 68.4625918,15.8635411 65.7954903,15.8590242 C65.6846932,15.8590242 65.5738961,15.8223575 65.4197899,15.7949903 Z" id="Fill-3" fill="#00112C"></path>
            <path d="M31.8908333,0.800130435 L35.0130797,0.800130435 C37.3932246,3.62479227 39.7677899,6.44307729 42.2810507,9.42583092 L42.2810507,0.84157971 L45.4476691,0.84157971 L45.4476691,15.8278841 L42.3583696,15.8278841 C42.3286111,14.0187295 41.1961957,12.7510725 40.0890217,11.4584396 C38.4345048,9.5262657 36.8052295,7.57257005 35.0170652,5.45281159 L35.0170652,15.8302754 L31.8908333,15.8302754 L31.8908333,0.800130435 Z" id="Fill-5" fill="#00112C"></path>
            <path d="M87.340372,13.2762295 C90.0821353,13.269587 92.2932947,11.057099 92.295686,8.31825845 C92.298343,5.58898309 90.0895749,3.36347585 87.3454203,3.33079469 C84.606314,3.29811353 82.2933913,5.62060145 82.3420145,8.35465942 C82.3909034,11.1182101 84.5893092,13.282872 87.340372,13.2762295 M95.3220145,8.27229227 C95.3475217,12.6946111 91.8338986,16.2504807 87.3895266,16.3006981 C82.9305411,16.3509155 79.3037295,12.7907947 79.2859275,8.3453599 C79.2678599,3.96635024 82.8611932,0.309780193 87.225058,0.266205314 C91.6295749,0.222099034 95.2967729,3.84837923 95.3220145,8.27229227" id="Fill-7" fill="#00112C"></path>
            <g id="Group-11" transform="translate(47.294686, 0.094882)">
                <mask id="mask-2" fill="white">
                    <use xlink:href="#path-1"></use>
                </mask>
                <g id="Clip-10"></g>
                <path d="M8.02359662,13.1795411 C10.8206256,13.223913 13.0594179,11.0717391 13.1359396,8.26487923 C13.2084758,5.61797101 10.9393937,3.30425121 8.20081884,3.23277778 C5.52787198,3.16289855 3.22478019,5.39797101 3.15250966,8.13176329 C3.08077053,10.8520048 5.28502174,13.1359662 8.02359662,13.1795411 M8.0685,16.2074638 C3.53219565,16.1569807 0.085263285,12.5960628 0.142123188,8.01884058 C0.196326087,3.69164251 3.84173671,0.139227053 8.19577053,0.171111111 C12.6300459,0.20326087 16.2103599,3.91084541 16.1519058,8.40942029 C16.0955773,12.7445894 12.4557464,16.2558213 8.0685,16.2074638" id="Fill-9" fill="#00112C" mask="url(#mask-2)"></path>
            </g>
            <g id="Group-14" transform="translate(13.816425, 0.094882)">
                <mask id="mask-4" fill="white">
                    <use xlink:href="#path-3"></use>
                </mask>
                <g id="Clip-13"></g>
                <path d="M8.10104831,13.1811087 C10.8669903,13.1760604 13.0560966,10.9779203 13.0529082,8.20825845 C13.0499855,5.46064976 10.8204928,3.23301691 8.07660386,3.23540821 C5.36725604,3.23779952 3.08409179,5.53292029 3.10853623,8.22951449 C3.13404348,10.9925338 5.3457343,13.186157 8.10104831,13.1811087 M16.078971,8.19311353 C16.0941159,12.6377512 12.6017488,16.1665193 8.1494058,16.205843 C3.6978599,16.244901 0.0527149758,12.6611329 0.0426183575,8.2358913 C0.0325217391,3.86432126 3.73399517,0.161785024 8.10529952,0.170818841 C12.4925459,0.180118357 16.0635604,3.77292029 16.078971,8.19311353" id="Fill-12" fill="#00112C" mask="url(#mask-4)"></path>
            </g>
            <g id="Group-17" transform="translate(96.449275, 0.360582)">
                <mask id="mask-6" fill="white">
                    <use xlink:href="#path-5"></use>
                </mask>
                <g id="Clip-16"></g>
                <path d="M0.257570048,11.0061908 L3.5291401,11.0061908 C4.5199372,13.1052246 7.13203865,13.4689686 8.81711111,12.7061425 C9.28527536,12.4946449 9.80711111,11.8721087 9.84510628,11.4010217 C9.87725604,11.0035338 9.32831884,10.3374227 8.88938164,10.1660459 C7.67167633,9.68991063 6.37399517,9.42235024 5.11510628,9.04691546 C4.47237681,8.85534541 3.82858454,8.64916184 3.21614493,8.37974155 C1.80314976,7.75853382 0.7257343,6.83123913 0.595806763,5.16078019 C0.453657005,3.33090097 1.30655556,1.99070773 2.78252174,1.0410942 C5.12918841,-0.468881643 9.02170048,-0.265355072 11.2546473,1.4242343 C12.3299372,2.23807488 12.8483188,3.20655314 12.9721353,4.69872705 L9.67319807,4.69872705 C8.78230435,2.92942754 6.69177295,2.25906522 4.95409179,3.31017633 C4.51674879,3.57481401 4.03822222,4.20877536 4.05363285,4.65674638 C4.06798068,5.07814734 4.63445411,5.68261594 5.08880193,5.84867874 C6.34529952,6.30807488 7.67539614,6.56261594 8.96590338,6.93406522 C9.6378599,7.12722947 10.3095507,7.34855797 10.9443092,7.6384372 C13.7453237,8.91778502 14.1885121,12.4282198 11.8163382,14.412471 C9.17527536,16.6217705 3.69918841,16.3095725 1.36049275,13.8016256 C0.644961353,13.0345483 0.217183575,12.1340894 0.257570048,11.0061908" id="Fill-15" fill="#00112C" mask="url(#mask-6)"></path>
            </g>
        </g>
    </g>
</svg>