<?xml version="1.0" encoding="utf-8"?>
<!-- Generator: Adobe Illustrator 22.1.0, SVG Export Plug-In . SVG Version: 6.00 Build 0)  -->
<svg version="1.1" id="Layer_1" xmlns="http://www.w3.org/2000/svg" xmlns:xlink="http://www.w3.org/1999/xlink" x="0px" y="0px"
	 viewBox="0 0 440.4 70.6" style="enable-background:new 0 0 440.4 70.6;" xml:space="preserve">
<style type="text/css">
	.st0{fill:#FFFFFF;}
</style>
<path class="st0" d="M0,0.2c1.2,0,2.5,0.1,3.7,0.1c7.2,0,14.3-0.1,21.5,0c4.7,0.1,9.3,1,13.5,3.2c10.5,5.5,11,18.5,5.3,25
	c-1.8,2-3.9,3.5-6.4,4.5c-0.4,0.1-0.8,0.3-1.2,0.7c0.6,0.1,1.3,0.2,1.9,0.3c6.4,1.2,11.9,7,12.7,13.5c1.2,9.8-4,16.9-12.5,19.8
	c-4,1.4-8.2,1.9-12.4,1.9c-8.2,0-16.4,0-24.6,0c-0.5,0-1,0-1.6,0.1C0,46.3,0,23.3,0,0.2z M14.1,57.7c3,0,5.9,0,8.7,0
	c2.3,0,4.7,0.1,6.9-0.3c5.7-0.9,7.5-4.8,6.9-9.5c-0.4-3.6-3.2-6.1-7.3-6.3c-5-0.3-10-0.2-15-0.2c-0.1,0-0.1,0.1-0.3,0.2
	C14.1,46.8,14.1,52.1,14.1,57.7z M14.1,29.5c0.3,0,0.4,0.1,0.5,0.1c2.9,0,5.8,0.1,8.8,0c1.5-0.1,3-0.3,4.5-0.7
	c4.3-1.3,6.4-4.8,6-9.6c-0.3-4-3-6.7-7.4-7.1c-4-0.3-8.1-0.2-12.1-0.2c-0.1,0-0.1,0.1-0.2,0.2C14.1,17.9,14.1,23.7,14.1,29.5z"/>
<path class="st0" d="M227.5,70.6c-2-0.3-4.1-0.6-6.1-1c-13.2-2.8-23.9-14.2-26-27.5c-1.8-11.5,0.6-22,8.6-30.7
	c6.1-6.7,13.8-10.2,22.8-10.9c10.3-0.8,19.5,2.1,27,9.3c7.9,7.6,11.2,17,10.6,27.8c-0.7,11.5-5.8,20.7-15.4,27.2
	c-4.8,3.2-10.1,5-15.8,5.5c-0.4,0-0.8,0.2-1.2,0.3C230.6,70.6,229,70.6,227.5,70.6z M250.7,35.3c0.1-3-0.4-5.9-1.5-8.7
	c-3.1-7.9-8.8-12.9-17.3-13.8c-7.6-0.9-14,2-18.6,8.2c-7,9.3-5.8,23.4,2.7,31.4c7.5,7.2,18.2,7.7,26,1.3
	C247.7,48.9,250.5,42.7,250.7,35.3z"/>
<path class="st0" d="M88.1,70.6c-2-0.3-3.9-0.6-5.9-1C69,66.7,58.6,56,56.2,42.6c-2.1-11.7,0.4-22.2,8.4-31.2
	C70.1,5.3,77,1.9,85.1,0.7c10.2-1.4,19.4,0.8,27.4,7.3c7.5,6.1,11.6,14.1,12.5,23.7c0.9,9.7-1.5,18.6-7.7,26.2
	c-5.5,6.8-12.7,10.7-21.3,12.1c-1.1,0.2-2.3,0.4-3.4,0.5C91.1,70.6,89.6,70.6,88.1,70.6z M90.8,12.6c-6.2,0.1-11.1,2.1-15.1,6.3
	c-8.8,9.1-8.4,24.3,0.7,33.4c7.4,7.4,18.1,7.9,26.3,1.4c9.3-7.5,11.5-21.6,4.9-31.5C103.5,16,97.7,12.8,90.8,12.6z"/>
<path class="st0" d="M358.1,70.6c-2-0.3-4-0.6-6-1c-13.4-2.9-24-14.2-26.1-27.8c-1.7-11.1,0.6-21.2,8.1-29.7
	c5.5-6.4,12.6-10.1,21-11.2c10.3-1.4,19.7,0.9,27.8,7.6c6.9,5.7,10.8,13.1,12,22c1.2,9.3-0.6,18-6,25.7c-5.6,7.9-13.3,12.5-22.8,14
	c-1.1,0.2-2.2,0.3-3.3,0.5C361.1,70.6,359.6,70.6,358.1,70.6z M339.3,33.8c0,6.8,1.8,12,5.1,16.2c7.9,10.1,21.5,10.9,30.3,1.6
	c7.3-7.7,8.7-19.8,3.2-29c-6.1-10.1-18.9-13.2-28.7-6.9C342.3,20.4,339.5,27.2,339.3,33.8z"/>
<path class="st0" d="M440.4,51.8c-0.2,1-0.4,2-0.6,3c-2.1,8.1-7.5,12.8-15.5,14.4c-10.2,2.1-19.5-0.3-27.5-7.1
	c-0.2-0.1-0.4-0.2-0.6-0.3c2.6-3.4,5.1-6.6,7.5-9.7c1.8,1.2,3.5,2.4,5.3,3.4c3.8,2.2,8,2.8,12.3,2.1c4.7-0.8,6.4-4.6,5.3-8.7
	c-0.6-2.5-2.2-4.3-4.5-5.5c-3.9-2-7.8-4-11.7-6.1c-3.8-2-7.2-4.4-9.5-8c-5.7-8.7-4.2-24.6,11.9-28.5c1.5-0.4,3-0.5,4.5-0.8
	c1.6,0,3.2,0,4.8,0c1.9,0.3,3.8,0.6,5.6,1c4,1,7.4,3.1,10.8,5.5c-2.3,3.5-4.6,7-6.8,10.4c-0.2-0.1-0.3-0.1-0.3-0.1
	c-0.2-0.2-0.4-0.4-0.6-0.5c-3.7-3.6-8.3-4.8-13.3-4.3c-2.5,0.3-4.7,1.3-5.6,3.8c-1,2.8-0.2,6.3,2.1,8.2c1,0.9,2.2,1.6,3.4,2.2
	c4.3,2.3,8.7,4.3,13,6.7c4.8,2.8,8.2,6.8,9.6,12.3c0.3,1,0.4,2,0.7,3C440.4,49.4,440.4,50.6,440.4,51.8z"/>
<path class="st0" d="M306.7,33.5c7.3,1.1,12,5.1,14.1,11.9c2.3,7.4-0.3,17.3-10.7,21.5c-4.1,1.6-8.4,2.3-12.8,2.4
	c-8.6,0.1-17.3,0-25.9,0c-0.3,0-0.6,0-1-0.1c0-22.9,0-45.8,0-68.9c0.4,0,0.8-0.1,1.2-0.1c8,0,15.9-0.1,23.9,0.1
	c5.9,0.1,11.5,1.3,16.3,5c5.1,4.1,6.9,9.5,5.9,15.8c-0.9,5.8-4.4,9.8-9.9,11.9C307.3,33.2,307,33.4,306.7,33.5z M284.3,57.6
	c0.4,0,0.6,0.1,0.8,0.1c4.4,0,8.7,0.1,13.1-0.1c1.5,0,3.1-0.4,4.5-1c3.1-1.3,4.3-3.9,4.3-7.1c0.1-3.3-1.2-5.8-4.3-7.1
	c-1.7-0.7-3.5-1.1-5.3-1.1c-4-0.2-7.9,0-11.9-0.1c-1,0-1.3,0.4-1.3,1.3c0,3.7,0,7.4,0,11C284.3,54.9,284.3,56.2,284.3,57.6z
	 M284.4,29.6c3.4,0,6.7,0.1,9.9,0c1.6-0.1,3.2-0.4,4.6-1c3.8-1.4,5.5-4.8,5.2-9.4c-0.3-3.6-2.4-6.2-6.4-6.7
	c-4.3-0.5-8.7-0.4-13.1-0.5c-0.1,0-0.1,0.1-0.2,0.2C284.4,17.9,284.4,23.6,284.4,29.6z"/>
<path class="st0" d="M144.9,27.4c0,0.5,0,0.9,0,1.4c0,12.8,0,25.6,0,38.4c0,1.2-0.3,1.6-1.5,1.5c-3.5-0.1-7-0.1-10.6,0
	c-1,0-1.4-0.3-1.4-1.4c0-21.8,0-43.7,0-65.5c0-1,0.3-1.3,1.3-1.3c1.7,0.1,3.6-0.4,5,0.2c1.4,0.6,2.3,2.3,3.4,3.5
	c11.1,12.4,22.2,24.8,33.3,37.2c0.3,0.3,0.5,0.7,0.8,1c0.1-0.1,0.2-0.1,0.4-0.2c0-0.5,0-0.9,0-1.4c0-12.9,0-25.8,0-38.8
	c0-1.1,0.3-1.5,1.4-1.5c3.6,0.1,7.1,0.1,10.7,0c1,0,1.5,0.2,1.5,1.4c0,21.8,0,43.5,0,65.3c0,1.1-0.3,1.5-1.4,1.4
	c-1.8-0.1-3.7,0.4-5.2-0.2c-1.4-0.6-2.4-2.4-3.6-3.6c-11-12.2-21.9-24.5-32.9-36.7c-0.3-0.3-0.5-0.6-0.8-0.8
	C145.1,27.3,145,27.3,144.9,27.4z"/>
</svg>
