<?xml version="1.0" encoding="UTF-8"?>
<svg width="130px" height="37px" viewBox="0 0 130 37" version="1.1" xmlns="http://www.w3.org/2000/svg" xmlns:xlink="http://www.w3.org/1999/xlink">
    <!-- Generator: Sketch 50.2 (55047) - http://www.bohemiancoding.com/sketch -->
    <title>Group</title>
    <desc>Created with Sketch.</desc>
    <defs>
        <polygon id="path-1" points="0 36.5779894 129.36867 36.5779894 129.36867 0.000276595745 0 0.000276595745"></polygon>
    </defs>
    <g id="Unified-Commerce" stroke="none" stroke-width="1" fill="none" fill-rule="evenodd">
        <g transform="translate(-927.000000, -1166.000000)" id="Header">
            <g>
                <g id="Text-2" transform="translate(927.000000, 864.000000)">
                    <g id="Quote" transform="translate(0.000000, 302.000000)">
                        <g id="Group">
                            <polygon id="Fill-1" fill="#FEFEFE" points="66.261 18.9683138 66.3038723 19.0139521 69.9528617 14.826984 73.1261064 14.826984 69.3070106 18.8728883 73.6474894 25.6978883 70.3214255 25.6978883 67.4531277 20.6838989 66.1994574 21.8573564 66.1994574 25.6978883 63.5199362 25.6978883 63.5199362 10.8343245 66.261 10.8343245"></polygon>
                            <path d="M82.6095372,21.0596543 C82.2340585,23.9618351 80.2570904,26.0605053 77.2504947,26.0605053 C73.9894309,26.0605053 71.8568777,23.6008777 71.8568777,20.3024734 C71.8568777,17.0096011 74.0018777,14.5596543 77.2504947,14.545133 C80.0434202,14.5534309 82.0259202,16.366516 82.5237926,18.9678989 C82.7353883,20.0763564 82.6724628,20.5721543 82.6095372,21.0596543 M74.4769309,20.3239096 C74.4769309,21.7483777 74.9782606,24.035133 77.2221436,24.035133 C79.4667181,24.035133 80.0109202,21.6308245 80.0109202,20.3239096 C80.0109202,18.7881117 79.5642181,16.6472606 77.2484202,16.6147606 C75.0031543,16.6147606 74.4769309,18.89875 74.4769309,20.3239096 C74.4769309,20.3239096 74.4769309,18.89875 74.4769309,20.3239096" id="Fill-2" fill="#FEFEFE"></path>
                            <path d="M82.9958032,14.8176489 L85.5211223,14.8294043 L85.5688351,16.2103085 L85.611016,16.2103085 C86.4242074,14.587383 88.0187819,14.4255745 88.8651649,14.5728617 L88.8651649,16.8935 L88.3334096,16.8935 C86.6441011,16.9197766 85.6649521,18.2640319 85.6206968,19.7555745 L85.6206968,25.698234 L82.9909628,25.698234 L82.9958032,14.8176489 Z" id="Fill-4" fill="#FEFEFE"></path>
                            <path d="M94.928766,12.8799574 C93.3653085,12.8661277 92.9379681,13.297617 93.0209468,14.7857021 L94.9661064,14.7857021 L94.9661064,16.5987872 L93.0403085,16.5987872 L93.0403085,25.6821915 L90.374617,25.6821915 L90.374617,16.5987872 L89.0262128,16.5987872 L89.0262128,14.7857021 L90.4188723,14.7857021 C90.3372766,11.8454894 91.6269043,10.7785213 94.1252553,10.8110213 C94.2538723,10.8151702 94.6245106,10.7971915 94.928766,10.8220851 L94.928766,12.8799574 Z" id="Fill-6" fill="#FEFEFE"></path>
                            <mask id="mask-2" fill="white">
                                <use xlink:href="#path-1"></use>
                            </mask>
                            <g id="Clip-9"></g>
                            <polygon id="Fill-8" fill="#FEFEFE" mask="url(#mask-2)" points="35.2348404 25.6953298 37.8701064 25.6953298 37.8701064 14.8915 35.2348404 14.8915"></polygon>
                            <polygon id="Fill-10" fill="#FEFEFE" mask="url(#mask-2)" points="35.3475532 13.2727234 37.8535106 13.2727234 37.8535106 10.831766 35.3475532 10.831766"></polygon>
                            <path d="M42.2283564,27.0447021 C42.2124521,28.4117766 41.4559628,29.298266 40.1241543,29.298266 C39.7687287,29.298266 39.032984,29.298266 37.895484,29.2913511 L37.895484,27.1899149 C39.3600585,27.180234 39.5875585,26.6152872 39.5944734,26.2384255 L39.5944734,14.8917766 L42.2283564,14.8917766 L42.2283564,27.0447021 Z" id="Fill-11" fill="#FEFEFE" mask="url(#mask-2)"></path>
                            <polygon id="Fill-12" fill="#FEFEFE" mask="url(#mask-2)" points="39.6714362 13.2727234 42.1780851 13.2727234 42.1780851 10.831766 39.6714362 10.831766"></polygon>
                            <path d="M56.1537074,16.0834894 L56.216633,16.1477979 C56.476633,15.7488085 57.5864734,14.5338617 59.0503564,14.5338617 C61.4629628,14.5338617 62.7560479,16.0399255 62.7560479,18.6171064 L62.7560479,25.6951915 L60.1525904,25.6951915 L60.1525904,19.1571596 C60.1339202,17.9864681 59.7570585,16.8759362 58.2178032,16.8759362 C57.2386543,16.8759362 56.0921649,17.5757234 56.0520585,19.1571596 L56.0520585,25.6951915 L53.4313138,25.6951915 L53.4313138,14.8436489 L56.1537074,14.8436489 L56.1537074,16.0834894 Z" id="Fill-13" fill="#FEFEFE" mask="url(#mask-2)"></path>
                            <path d="M7.81424468,20.4599947 C7.81217021,18.9933457 7.18706383,16.926484 5.3235,16.926484 C3.19025532,16.926484 2.69376596,18.9933457 2.69376596,20.4599947 C2.69376596,22.0165372 3.27392553,23.9976543 5.3235,23.9976543 C7.18706383,23.9976543 7.81217021,21.9287181 7.81424468,20.4599947 C7.81424468,20.4599947 7.81217021,21.9287181 7.81424468,20.4599947 Z M10.3015319,23.755633 C10.3015319,24.4346755 10.2738723,25.1323883 10.3132872,25.8107394 L7.6503617,25.8107394 C7.61302128,25.3190904 7.58951064,25.1946223 7.58951064,24.7029734 L7.54871277,24.7029734 C7.06467021,25.3488245 6.11318085,26.1668564 4.55110638,26.1668564 C1.64339362,26.1668564 -0.000276595745,23.3027074 -0.000276595745,20.6536117 C-0.000276595745,16.8179202 2.06243617,14.7275479 4.49302128,14.7275479 C6.3116383,14.7275479 7.38344681,15.663133 7.66557447,16.0994628 L7.70291489,16.0994628 L7.70291489,10.9769096 L10.3015319,10.9769096 L10.3015319,23.755633 Z" id="Fill-14" fill="#FEFEFE" mask="url(#mask-2)"></path>
                            <path d="M13.4042447,21.0765266 C13.3316383,22.6883883 14.5866915,23.9033351 16.0671702,23.9033351 C17.0656809,23.9033351 17.7751489,23.4649309 18.2785532,22.5846649 L20.991266,22.5846649 C20.9158936,22.9449309 20.1289787,26.0836011 15.8998298,26.0836011 C13.0453617,26.0836011 10.7254149,23.45525 10.7254149,20.5129628 C10.7254149,17.411633 12.4451489,14.6442926 15.915734,14.6442926 C18.0462128,14.6442926 19.4990319,15.7278564 20.4380745,17.6218457 C20.7361064,18.1964734 20.9636064,19.0836543 21.0479681,19.7412606 C21.1330213,20.3788138 21.1281809,20.7072713 21.1330213,21.0765266 L13.4042447,21.0765266 Z M18.3145106,19.228867 C18.3145106,17.8873777 17.4549894,16.7650904 15.9475426,16.7650904 C14.1040319,16.7650904 13.5038191,18.1826436 13.4519574,19.228867 L18.3145106,19.228867 Z" id="Fill-15" fill="#FEFEFE" mask="url(#mask-2)"></path>
                            <path d="M26.0407979,16.9471596 L29.0695213,16.9471596 C30.6564894,16.9471596 31.5976064,16.3096064 31.5976064,15.0718404 C31.5976064,13.7925851 30.6965957,13.1992872 29.0695213,13.1992872 L26.0407979,13.1992872 L26.0407979,16.9471596 Z M23.2831383,10.9865213 L28.6414894,10.9865213 C31.3147872,10.8150319 34.2778191,11.6261489 34.2778191,14.6859894 C34.2778191,16.3787553 33.2869149,17.312266 31.7801596,17.8364149 L31.7801596,17.8758298 C33.54,18.2568404 34.741117,19.6536489 34.741117,21.7371064 C34.741117,23.9014681 33.4093085,26.0215745 28.8032979,25.6744468 L23.2831383,25.6744468 L23.2831383,10.9865213 Z M26.0407979,23.4851915 L29.1808511,23.4851915 C30.5617553,23.4851915 31.9198404,22.9285426 31.9198404,21.2662021 C31.9198404,19.5153511 30.520266,19.0437553 29.1808511,19.0437553 L26.0407979,19.0437553 L26.0407979,23.4851915 Z" id="Fill-16" fill="#FEFEFE" mask="url(#mask-2)"></path>
                            <path d="M45.3332819,21.0765266 C45.2586011,22.6883883 46.5136543,23.9033351 47.9962074,23.9033351 C48.9926436,23.9033351 49.7041862,23.4649309 50.205516,22.5846649 L52.9203032,22.5846649 C52.8428564,22.9449309 52.05525,26.0836011 47.828867,26.0836011 C44.9743989,26.0836011 42.6523777,23.45525 42.6523777,20.5129628 C42.6523777,17.411633 44.3734947,14.6442926 47.8426968,14.6442926 C49.9731755,14.6442926 51.4280691,15.7278564 52.3671117,17.6218457 C52.6651436,18.1964734 52.8926436,19.0836543 52.9770053,19.7412606 C53.0620585,20.3788138 53.0579096,20.7072713 53.0620585,21.0765266 L45.3332819,21.0765266 Z M50.2435479,19.228867 C50.2435479,17.8873777 49.3854096,16.7650904 47.8765798,16.7650904 C46.0330691,16.7650904 45.4307819,18.1826436 45.3809947,19.228867 L50.2435479,19.228867 Z" id="Fill-17" fill="#FEFEFE" mask="url(#mask-2)"></path>
                            <path d="M98.7650106,9.13651064 L114.102936,-0.000138297872 L129.368255,9.09709574 L129.368255,27.478266 L114.102936,36.5775745 L98.7650106,27.4367766 L98.7650106,9.13651064 Z M101.396128,25.8525745 L112.753149,32.6215638 L112.753149,25.5337979 L102.864851,25.5337979 L102.864851,18.7578936 L107.118202,18.7578936 L107.118202,12.6236915 C107.118202,8.84815957 110.314957,6.08773404 112.753149,5.7392234 L112.753149,3.95379787 L101.396128,10.7227872 L101.396128,25.8525745 Z M126.735064,10.6812979 L115.38634,3.91714894 L115.38634,8.28390426 L114.344957,8.28390426 C111.50916,8.28390426 109.751394,10.4717766 109.751394,12.7211915 L109.751394,21.4948085 L105.497351,21.4948085 L105.497351,22.796883 L115.38634,22.796883 L115.38634,32.6540638 L126.735064,25.8940638 L126.735064,10.6812979 Z" id="Fill-18" fill="#FEFEFE" mask="url(#mask-2)"></path>
                        </g>
                    </g>
                </g>
            </g>
        </g>
    </g>
</svg>