<?xml version="1.0" encoding="utf-8"?>
<!-- Generator: Adobe Illustrator 22.1.0, SVG Export Plug-In . SVG Version: 6.00 Build 0)  -->
<svg version="1.1" id="Layer_1" xmlns="http://www.w3.org/2000/svg" xmlns:xlink="http://www.w3.org/1999/xlink" x="0px" y="0px"
	 viewBox="0 0 40 40" style="enable-background:new 0 0 40 40;" xml:space="preserve">
<style type="text/css">
	.st0{fill:#0ABF53;}
</style>
<title>Page 1</title>
<desc>Created with Sketch.</desc>
<g id="Page-1_1_">
	<g id="Desktop-HD-Copy-84" transform="translate(-422.000000, -2263.000000)">
		<g id="Page-1" transform="translate(422.000000, 2263.000000)">
			<path id="Fill-1" class="st0" d="M35,30c-0.6,0-1.3,0.1-1.8,0.4l-5.8-8.9c2.8-2.2,4.6-5.6,4.6-9.5c0-6.6-5.4-12-12-12S8,5.4,8,12
				c0,3.8,1.8,7.3,4.6,9.5l-5.8,8.9C6.3,30.1,5.6,30,5,30c-2.8,0-5,2.2-5,5s2.2,5,5,5s5-2.2,5-5c0-1.4-0.6-2.6-1.5-3.6l5.8-8.9
				c1.4,0.8,3,1.2,4.7,1.4v6.2c-2.3,0.5-4,2.5-4,4.9c0,2.8,2.2,5,5,5s5-2.2,5-5c0-2.4-1.7-4.4-4-4.9v-6.2c1.7-0.1,3.3-0.6,4.7-1.4
				l5.8,8.9C30.6,32.4,30,33.6,30,35c0,2.8,2.2,5,5,5s5-2.2,5-5S37.8,30,35,30 M5,38c-1.7,0-3-1.3-3-3s1.3-3,3-3s3,1.3,3,3
				S6.7,38,5,38 M10,12c0-5.5,4.5-10,10-10s10,4.5,10,10s-4.5,10-10,10S10,17.5,10,12 M23,35c0,1.7-1.3,3-3,3s-3-1.3-3-3s1.3-3,3-3
				S23,33.3,23,35 M35,38c-1.7,0-3-1.3-3-3s1.3-3,3-3s3,1.3,3,3S36.7,38,35,38"/>
			<path id="Fill-3" class="st0" d="M20,13c0.6,0,1-0.4,1-1s-0.4-1-1-1s-1,0.4-1,1S19.4,13,20,13"/>
			<path id="Fill-5" class="st0" d="M19,35c0,0.6,0.4,1,1,1s1-0.4,1-1s-0.4-1-1-1S19,34.4,19,35"/>
			<path id="Fill-7" class="st0" d="M35,34c-0.6,0-1,0.4-1,1s0.4,1,1,1s1-0.4,1-1S35.6,34,35,34"/>
			<path id="Fill-9" class="st0" d="M5,34c-0.6,0-1,0.4-1,1s0.4,1,1,1s1-0.4,1-1S5.6,34,5,34"/>
			<path id="Fill-11" class="st0" d="M16,13c0.6,0,1-0.4,1-1s-0.4-1-1-1s-1,0.4-1,1S15.4,13,16,13"/>
			<path id="Fill-13" class="st0" d="M24,13c0.6,0,1-0.4,1-1s-0.4-1-1-1s-1,0.4-1,1S23.4,13,24,13"/>
		</g>
	</g>
</g>
</svg>
