<?xml version="1.0" encoding="utf-8"?>
<!-- Generator: Adobe Illustrator 22.1.0, SVG Export Plug-In . SVG Version: 6.00 Build 0)  -->
<svg version="1.1" id="Layer_1" xmlns="http://www.w3.org/2000/svg" xmlns:xlink="http://www.w3.org/1999/xlink" x="0px" y="0px"
	 viewBox="0 0 40 40" style="enable-background:new 0 0 40 40;" xml:space="preserve">
<style type="text/css">
	.st0{fill:#0ABF53;}
</style>
<g>
	<path class="st0" d="M23,34h-6c-0.6,0-1,0.4-1,1s0.4,1,1,1h6c0.6,0,1-0.4,1-1S23.6,34,23,34z"/>
	<path class="st0" d="M30,0H10C8.9,0,8,0.9,8,2v36c0,1.1,0.9,2,2,2h20c1.1,0,2-0.9,2-2V2C32,0.9,31.1,0,30,0z M10,37V2h19
		c0.6,0,1,0.4,1,1v35H11C10.4,38,10,37.6,10,37z"/>
	<circle class="st0" cx="20" cy="5" r="1"/>
</g>
</svg>
