<?xml version="1.0" encoding="utf-8"?>
<!-- Generator: Adobe Illustrator 22.1.0, SVG Export Plug-In . SVG Version: 6.00 Build 0)  -->
<svg version="1.1" id="Layer_1" xmlns="http://www.w3.org/2000/svg" xmlns:xlink="http://www.w3.org/1999/xlink" x="0px" y="0px"
	 viewBox="0 0 40 40" style="enable-background:new 0 0 40 40;" xml:space="preserve">
<style type="text/css">
	.st0{fill:#0ABF53;}
</style>
<g>
	<circle class="st0" cx="2.5" cy="24" r="1"/>
	<circle class="st0" cx="36.1" cy="12" r="1"/>
	<circle class="st0" cx="37.5" cy="16" r="1"/>
	<circle class="st0" cx="3.9" cy="28" r="1"/>
	<path class="st0" d="M3,20c0-9.4,7.6-17,17-17c4.6,0,8.9,1.8,12,5h-5.8c-0.6,0-1,0.4-1,1s0.4,1,1,1h7.5c0.8,0,1.3-0.7,1.3-1.5V1
		c0-0.6-0.4-1-1-1s-1,0.4-1,1v5.4C30,2.9,24.9,1,19.9,1C9.4,1,0.9,9.5,0.9,20c0,0.6,0.5,1,1,1S3,20.6,3,20z"/>
	<path class="st0" d="M38,19c-0.6,0-1,0.4-1,1c0,0.6,0,1.3-0.1,1.9C36,29.7,29.8,36,22,36.9c-5.2,0.6-10.3-1.2-14-4.9h5.8
		c0.6,0,1-0.4,1-1s-0.4-1-1-1H6.3C5.4,30,5,30.7,5,31.5V39c0,0.6,0.4,1,1,1s1-0.4,1-1v-5.4c3,3.5,8.2,5.4,13.1,5.4
		c0.7,0,1.4,0,2.1-0.1c8.7-1,15.7-8,16.6-16.7C39,21.4,39,20.7,39,20C39,19.4,38.6,19,38,19z"/>
</g>
</svg>
