<svg xmlns="http://www.w3.org/2000/svg" width="200" height="200" viewBox="0 0 200 200"><g fill="#fff"><path d="M15.5 100.9c0-.4.3-.7.7-.7h4.6c1.4 0 2.5.4 3.2 1.1.5.5.8 1.2.8 2 0 1.6-1 2.4-2 2.8 1.5.4 2.6 1.3 2.6 3 0 2.1-1.8 3.4-4.5 3.4h-4.7c-.4 0-.7-.3-.7-.7v-10.9zm5 4.8c1.7 0 2.8-.8 2.8-2.2 0-1.2-1-2-2.7-2h-3.7v4.3l3.6-.1zm.5 5.6c1.9 0 3-.8 3-2.2 0-1.4-1.1-2.1-3.3-2.1h-3.8v4.3H21zM34.1 100.8c0-.4.3-.7.7-.7.4 0 .7.3.7.7v10.4h6.4c.4 0 .6.3.6.6s-.3.6-.6.6h-7.1c-.4 0-.7-.3-.7-.7v-10.9zM56 101.7l-4.7 10.5c-.1.3-.4.5-.7.5-.4 0-.6-.3-.6-.6 0-.1 0-.2.1-.4l5-11c.2-.4.4-.6.9-.6h.1c.4 0 .7.2.9.6l5 10.9c.1.1.1.2.1.4 0 .4-.3.7-.7.7-.3 0-.6-.2-.7-.5L56 101.7zM69.3 106.4c0-3.5 2.6-6.4 6.2-6.4 2 0 3.3.6 4.4 1.6.1.1.3.3.3.6 0 .4-.3.7-.7.7-.2 0-.4-.1-.5-.1-.9-.9-2-1.4-3.6-1.4-2.7 0-4.8 2.2-4.8 5s2.1 5.1 4.8 5.1c1.5 0 2.6-.5 3.7-1.5.1-.1.3-.2.4-.2.4 0 .7.3.7.7 0 .2-.1.4-.2.5-1.2 1.1-2.6 1.8-4.6 1.8-3.5-.1-6.1-2.8-6.1-6.4zM88.7 100.8c0-.4.3-.7.7-.7s.7.3.7.7v6.8l7-7.2c.1-.1.3-.2.6-.2.4 0 .7.3.7.7 0 .2-.1.4-.2.5l-4.3 4.3 4.7 5.8c.1.1.2.3.2.5 0 .4-.3.7-.7.7-.3 0-.4-.1-.6-.3l-4.6-5.7-2.7 2.7v2.7c0 .4-.3.7-.7.7-.4 0-.7-.3-.7-.7l-.1-11.3zM112.4 100.9c0-.4.3-.7.7-.7h3.9c2.8 0 4.6 1.5 4.6 3.9 0 2.7-2.2 4-4.8 4h-3v3.7c0 .4-.3.7-.7.7s-.7-.3-.7-.7v-10.9zm4.4 6c2.1 0 3.4-1.1 3.4-2.7v-.1c0-1.8-1.3-2.7-3.3-2.7h-3.1v5.4l3 .1zM130.1 100.8c0-.4.3-.7.7-.7s.7.3.7.7v11.1c0 .4-.3.7-.7.7s-.7-.3-.7-.7v-11.1zM140.6 111.5l4.1-5.2-3.9-4.9c-.1-.1-.2-.3-.2-.5 0-.4.3-.7.7-.7.3 0 .4.1.6.4l3.7 4.8 3.7-4.8c.2-.2.4-.4.7-.4.3 0 .6.3.6.6 0 .2-.1.4-.2.5l-3.9 5 4.1 5.2c.1.1.2.3.2.5 0 .4-.3.7-.7.7-.3 0-.4-.1-.6-.4l-3.9-5-3.8 5c-.2.2-.4.4-.7.4s-.6-.3-.6-.6c-.1-.3 0-.5.1-.6zM159.5 111.8v-10.9c0-.4.3-.7.7-.7h7.7c.4 0 .6.3.6.6s-.3.6-.6.6h-7v4.2h6.2c.4 0 .6.3.6.6s-.3.6-.6.6h-6.2v4.3h7c.4 0 .6.3.6.6s-.3.6-.6.6h-7.8c-.3.2-.6-.1-.6-.5zM177.1 100.8c0-.4.3-.7.7-.7.4 0 .7.3.7.7v10.4h6.4c.4 0 .6.3.6.6s-.3.6-.6.6h-7.1c-.4 0-.7-.3-.7-.7v-10.9z"/></g></svg>